#define feh_width 64
#define feh_height 64
static unsigned char feh_bits[] = {
   0x00, 0x00, 0x00, 0x00, 0x00, 0x00, 0x00, 0x00, 0x00, 0x00, 0x00, 0x00,
   0x00, 0x00, 0x00, 0x00, 0x00, 0x00, 0x00, 0x00, 0x00, 0x00, 0x00, 0x00,
   0x00, 0x00, 0x00, 0x00, 0x00, 0x00, 0x00, 0x00, 0x00, 0x00, 0x00, 0x00,
   0x00, 0x00, 0x00, 0x00, 0x00, 0x00, 0x00, 0x00, 0x00, 0x00, 0x00, 0x00,
   0x00, 0x00, 0x00, 0x00, 0x00, 0x00, 0x00, 0x00, 0x00, 0x00, 0x00, 0x00,
   0x00, 0x00, 0x00, 0x00, 0x00, 0x00, 0x00, 0x00, 0x00, 0x00, 0x00, 0x00,
   0x00, 0x00, 0x00, 0x00, 0x00, 0x00, 0x00, 0x00, 0x00, 0x00, 0x00, 0x00,
   0x00, 0x00, 0x00, 0x00, 0x00, 0x00, 0x00, 0x00, 0x00, 0x00, 0x00, 0x00,
   0x00, 0x00, 0x00, 0xe0, 0x02, 0x00, 0x00, 0x00, 0x00, 0x00, 0x00, 0x5a,
   0x6f, 0x00, 0x00, 0x00, 0x00, 0x00, 0xc0, 0xb5, 0xd6, 0x02, 0x00, 0x00,
   0x00, 0x00, 0xb0, 0xde, 0x7b, 0x0f, 0x00, 0x00, 0x00, 0x00, 0x68, 0xad,
   0xb5, 0x14, 0x00, 0x00, 0x00, 0x00, 0xbc, 0xf7, 0xde, 0x7b, 0x00, 0x00,
   0x00, 0x00, 0xda, 0x03, 0xa0, 0xa5, 0x00, 0x00, 0x00, 0x00, 0x6f, 0x01,
   0x80, 0xde, 0x01, 0x00, 0x00, 0xa0, 0xd6, 0x00, 0x00, 0x2d, 0x05, 0x00,
   0x00, 0xd0, 0x2b, 0x00, 0x00, 0xf4, 0x0e, 0x00, 0x00, 0xa8, 0x1d, 0x00,
   0x00, 0x68, 0x09, 0x00, 0x00, 0xf4, 0x1e, 0x00, 0x00, 0xb8, 0x37, 0x00,
   0x00, 0x7a, 0x09, 0x80, 0x07, 0x50, 0x6b, 0x00, 0x00, 0xac, 0x06, 0xc0,
   0x1a, 0xe0, 0x3d, 0x00, 0x00, 0xda, 0x03, 0x80, 0x35, 0xc0, 0xde, 0x00,
   0x00, 0xaf, 0x01, 0xc0, 0x5e, 0x40, 0x6b, 0x01, 0x80, 0xb6, 0x02, 0x00,
   0x6d, 0x80, 0xd6, 0x02, 0xc0, 0x6b, 0x03, 0x85, 0xb7, 0xc0, 0x7b, 0x03,
   0xa0, 0xad, 0x02, 0x1e, 0x7b, 0xc0, 0xb5, 0x06, 0xe0, 0xda, 0x03, 0x6b,
   0xad, 0x80, 0xda, 0x03, 0x60, 0xeb, 0x01, 0xd6, 0xda, 0x40, 0xaf, 0x05,
   0xa0, 0x97, 0x02, 0x7b, 0x6d, 0x80, 0xf6, 0x06, 0x40, 0x7a, 0x03, 0xb5,
   0xd7, 0xc0, 0x6a, 0x01, 0x80, 0xbd, 0x01, 0x5e, 0x7b, 0xc0, 0xbd, 0x03,
   0x80, 0x56, 0x03, 0x6c, 0x35, 0x80, 0x5a, 0x01, 0x00, 0xab, 0x05, 0xd4,
   0x1e, 0x60, 0xad, 0x00, 0x00, 0xf7, 0x06, 0x58, 0x0d, 0xa0, 0xf7, 0x00,
   0x00, 0x6a, 0x0b, 0xa0, 0x07, 0x50, 0x6b, 0x00, 0x00, 0xac, 0x16, 0x00,
   0x00, 0x68, 0x2d, 0x00, 0x00, 0xd8, 0x1b, 0x00, 0x00, 0xf0, 0x1a, 0x00,
   0x00, 0xa0, 0x35, 0x00, 0x00, 0x58, 0x0b, 0x00, 0x00, 0xe0, 0xde, 0x00,
   0x00, 0xad, 0x06, 0x00, 0x00, 0x40, 0xad, 0x01, 0x80, 0xde, 0x02, 0x00,
   0x00, 0x00, 0xf7, 0x06, 0x60, 0xab, 0x00, 0x00, 0x00, 0x00, 0x6a, 0xed,
   0xad, 0x36, 0x00, 0x00, 0x00, 0x00, 0xb8, 0xb7, 0xd6, 0x1b, 0x00, 0x00,
   0x00, 0x00, 0x50, 0x6b, 0xad, 0x0d, 0x00, 0x00, 0x00, 0x00, 0x80, 0xbd,
   0xf7, 0x02, 0x00, 0x00, 0x00, 0x00, 0x00, 0x5a, 0x6b, 0x00, 0x00, 0x00,
   0x00, 0x00, 0x00, 0xe0, 0x05, 0x00, 0x00, 0x00, 0x00, 0x00, 0x00, 0x00,
   0x00, 0x00, 0x00, 0x00, 0x00, 0x00, 0x00, 0x00, 0x00, 0x00, 0x00, 0x00,
   0x00, 0x00, 0x00, 0x00, 0x00, 0x00, 0x00, 0x00, 0x00, 0x00, 0x00, 0x00,
   0x00, 0x00, 0x00, 0x00, 0x00, 0x00, 0x00, 0x00, 0x00, 0x00, 0x00, 0x00,
   0x00, 0x00, 0x00, 0x00, 0x00, 0x00, 0x00, 0x00, 0x00, 0x00, 0x00, 0x00,
   0x00, 0x00, 0x00, 0x00, 0x00, 0x00, 0x00, 0x00, 0x00, 0x00, 0x00, 0x00,
   0x00, 0x00, 0x00, 0x00, 0x00, 0x00, 0x00, 0x00, 0x00, 0x00, 0x00, 0x00,
   0x00, 0x00, 0x00, 0x00, 0x00, 0x00, 0x00, 0x00, 0x00, 0x00, 0x00, 0x00,
   0x00, 0x00, 0x00, 0x00, 0x00, 0x00, 0x00, 0x00 };
