#define qemu_width 64
#define qemu_height 64
static unsigned char qemu_bits[] = {
   0x00, 0x00, 0x00, 0x00, 0x00, 0x00, 0x00, 0x00, 0x00, 0x00, 0x00, 0x00,
   0x00, 0x00, 0x00, 0x00, 0x00, 0x00, 0x00, 0x00, 0x00, 0x00, 0x3f, 0x00,
   0x00, 0x00, 0x00, 0x00, 0x00, 0x00, 0x79, 0x00, 0x00, 0x00, 0x00, 0x00,
   0x00, 0x80, 0xcd, 0x00, 0x00, 0x00, 0x00, 0x00, 0x00, 0x80, 0x7c, 0x03,
   0x00, 0x00, 0x00, 0x00, 0x00, 0x80, 0x3c, 0x00, 0x00, 0x00, 0x00, 0x00,
   0x00, 0x80, 0x0e, 0x00, 0x00, 0x00, 0x00, 0x00, 0x00, 0x80, 0x06, 0x00,
   0x00, 0x00, 0x00, 0x00, 0x00, 0x80, 0x07, 0x00, 0x00, 0x00, 0x00, 0x00,
   0x00, 0x80, 0x07, 0x00, 0x00, 0x00, 0x00, 0x00, 0x00, 0x80, 0x07, 0x00,
   0x00, 0x00, 0x00, 0x00, 0x00, 0x80, 0x0f, 0x00, 0x00, 0x00, 0x00, 0x00,
   0x00, 0x00, 0x0e, 0x00, 0x00, 0x00, 0x00, 0x00, 0x00, 0x00, 0x0e, 0x00,
   0x00, 0x00, 0x00, 0x00, 0x00, 0x00, 0x1c, 0x00, 0x00, 0x00, 0x00, 0x00,
   0x00, 0x00, 0x1c, 0x00, 0x00, 0x00, 0x00, 0x00, 0x00, 0x00, 0x1c, 0x00,
   0x00, 0x00, 0x00, 0x00, 0x00, 0x00, 0x1c, 0x00, 0x00, 0x00, 0x00, 0x00,
   0x00, 0x00, 0x18, 0x00, 0x00, 0x00, 0x00, 0x00, 0x00, 0x30, 0x18, 0x00,
   0x00, 0x00, 0x00, 0x00, 0x00, 0x10, 0x10, 0x00, 0x00, 0x00, 0x00, 0x00,
   0x00, 0x08, 0x10, 0x00, 0x00, 0x40, 0x00, 0x00, 0x00, 0x48, 0x18, 0x00,
   0x00, 0x20, 0x00, 0x00, 0x00, 0x00, 0x09, 0x00, 0x00, 0x30, 0x00, 0x00,
   0x00, 0x10, 0x10, 0x00, 0x00, 0x10, 0x00, 0x00, 0x00, 0x54, 0x04, 0x00,
   0x00, 0x18, 0x00, 0x00, 0x00, 0xfd, 0x17, 0x00, 0x00, 0x08, 0xe0, 0x00,
   0xe1, 0xff, 0x14, 0x00, 0x00, 0x0c, 0xfc, 0x80, 0xff, 0xff, 0x07, 0x00,
   0x00, 0x04, 0xfc, 0xcb, 0xff, 0xff, 0x07, 0x00, 0x00, 0x02, 0xfc, 0xff,
   0xff, 0xff, 0x07, 0x00, 0x00, 0x01, 0xfc, 0xff, 0xff, 0xff, 0x03, 0x00,
   0x00, 0x01, 0xfe, 0xff, 0xfd, 0xff, 0x00, 0x00, 0x00, 0x01, 0xf8, 0xff,
   0xf9, 0x7f, 0x00, 0x00, 0x00, 0x4b, 0xb8, 0xff, 0xff, 0x0f, 0x00, 0x00,
   0x00, 0x1f, 0xfc, 0xff, 0x3f, 0x00, 0x00, 0x00, 0x00, 0x9f, 0xff, 0xff,
   0x0f, 0x00, 0x00, 0x00, 0x00, 0xff, 0x7f, 0x9f, 0x07, 0x00, 0x00, 0x00,
   0x00, 0xff, 0x1f, 0x9f, 0x07, 0x00, 0x00, 0x00, 0x00, 0xfe, 0x07, 0x88,
   0x03, 0x00, 0x00, 0x00, 0x00, 0xfc, 0x01, 0x80, 0x03, 0x00, 0x00, 0x00,
   0x00, 0x00, 0x00, 0x04, 0x03, 0x00, 0x00, 0x00, 0x00, 0x00, 0x00, 0xc6,
   0x01, 0x00, 0x00, 0x00, 0x00, 0x00, 0x00, 0xc6, 0x01, 0x00, 0x00, 0x00,
   0x00, 0x00, 0x00, 0x82, 0x01, 0x00, 0x00, 0x00, 0x00, 0x00, 0x00, 0x83,
   0x00, 0x00, 0x00, 0x00, 0x00, 0x00, 0x00, 0x83, 0x01, 0x00, 0x00, 0x00,
   0x00, 0x00, 0x00, 0x83, 0x00, 0x00, 0x00, 0x00, 0x00, 0x00, 0x00, 0x03,
   0x01, 0x00, 0x00, 0x00, 0x00, 0x00, 0x00, 0x01, 0x03, 0x00, 0x00, 0x00,
   0x00, 0x00, 0x00, 0x01, 0x03, 0x00, 0x00, 0x00, 0x00, 0x00, 0x00, 0x01,
   0x03, 0x00, 0x00, 0x00, 0x00, 0x00, 0x00, 0x01, 0x03, 0x00, 0x00, 0x00,
   0x00, 0x00, 0x00, 0x03, 0x03, 0x00, 0x00, 0x00, 0x00, 0x00, 0x00, 0x03,
   0x07, 0x00, 0x00, 0x00, 0x00, 0x00, 0x00, 0x0b, 0x06, 0x00, 0x00, 0x00,
   0x00, 0x00, 0xe8, 0x1b, 0x7e, 0x00, 0x00, 0x00, 0x00, 0x80, 0x37, 0x03,
   0xfe, 0x34, 0x00, 0x00, 0x00, 0x00, 0x0c, 0x1f, 0x18, 0x20, 0x00, 0x00,
   0x00, 0x00, 0x70, 0x3f, 0x00, 0x00, 0x00, 0x00, 0x00, 0x00, 0x00, 0x06,
   0x00, 0x00, 0x00, 0x00, 0x00, 0x00, 0x00, 0x04, 0x00, 0x00, 0x00, 0x00,
   0x00, 0x00, 0x00, 0x00, 0x00, 0x00, 0x00, 0x00 };
