#define squashed_width 64
#define squashed_height 64
static unsigned char squashed_bits[] = {
   0x00, 0x00, 0x00, 0x00, 0x00, 0x00, 0x00, 0x00, 0x00, 0x00, 0x00, 0x00,
   0x00, 0x00, 0x00, 0x00, 0x00, 0x00, 0x00, 0x00, 0x00, 0x00, 0x00, 0x00,
   0x00, 0x00, 0x00, 0x00, 0x00, 0x00, 0x00, 0x00, 0x00, 0x00, 0x00, 0x80,
   0x08, 0x00, 0x00, 0x00, 0x00, 0x00, 0x00, 0x40, 0x15, 0x00, 0x00, 0x00,
   0x00, 0x00, 0x00, 0x00, 0x10, 0x00, 0x00, 0x00, 0x00, 0x00, 0x00, 0x00,
   0x10, 0x18, 0x00, 0x00, 0x00, 0x00, 0x00, 0x88, 0x08, 0x01, 0x00, 0x00,
   0x00, 0x00, 0x00, 0x80, 0x88, 0x10, 0x00, 0x00, 0x00, 0x00, 0x00, 0x19,
   0x08, 0x0c, 0x01, 0x00, 0x00, 0x00, 0x10, 0x09, 0x44, 0x44, 0x01, 0x00,
   0x00, 0x00, 0x20, 0x09, 0x00, 0x84, 0x00, 0x00, 0x00, 0x00, 0x00, 0x09,
   0x00, 0x40, 0x04, 0x00, 0x00, 0x00, 0x26, 0x48, 0x00, 0x21, 0x02, 0x00,
   0x00, 0x00, 0x00, 0x09, 0x00, 0x08, 0x04, 0x00, 0x00, 0x00, 0x24, 0x42,
   0x00, 0x10, 0x21, 0x00, 0x00, 0x00, 0x49, 0x12, 0x00, 0x42, 0x50, 0x00,
   0x00, 0x00, 0x84, 0x84, 0x00, 0xa0, 0x48, 0x00, 0x00, 0x00, 0x90, 0x41,
   0x00, 0x00, 0x0c, 0x00, 0x00, 0x80, 0x03, 0x04, 0x00, 0x00, 0x81, 0x01,
   0x00, 0x40, 0x04, 0x02, 0x00, 0x00, 0x00, 0x00, 0x00, 0x80, 0x58, 0x00,
   0x00, 0x00, 0x81, 0x01, 0x00, 0x80, 0x11, 0x00, 0x00, 0x00, 0x0e, 0x00,
   0x00, 0x10, 0x08, 0x00, 0x00, 0x00, 0x04, 0x00, 0x00, 0x40, 0x08, 0x00,
   0x00, 0x00, 0x80, 0x00, 0x00, 0x38, 0x07, 0x00, 0x00, 0x00, 0xfe, 0x03,
   0x00, 0x00, 0x14, 0x00, 0x00, 0x00, 0x10, 0x00, 0x00, 0x20, 0x00, 0x00,
   0x00, 0x00, 0x04, 0x00, 0x00, 0x30, 0x01, 0x00, 0x00, 0x00, 0x80, 0x05,
   0x00, 0x00, 0x00, 0x00, 0x00, 0x00, 0x60, 0x04, 0x00, 0x60, 0x01, 0x00,
   0x00, 0x00, 0x0c, 0x00, 0x00, 0x20, 0x00, 0x00, 0x00, 0x00, 0x00, 0x00,
   0x00, 0x08, 0x04, 0x00, 0x00, 0x00, 0x08, 0x03, 0x00, 0xfa, 0x07, 0x00,
   0x00, 0x00, 0x70, 0x04, 0x00, 0x20, 0x18, 0x00, 0x00, 0x00, 0x00, 0x03,
   0x00, 0x00, 0x0a, 0x00, 0x00, 0x00, 0x04, 0x00, 0x00, 0xc0, 0x30, 0x00,
   0x00, 0x00, 0x00, 0x00, 0x00, 0x40, 0x10, 0x00, 0x00, 0x00, 0x20, 0x02,
   0x00, 0x20, 0x46, 0x00, 0x00, 0x00, 0x80, 0x02, 0x00, 0x80, 0x21, 0x00,
   0x00, 0x40, 0x04, 0x00, 0x00, 0x00, 0xc8, 0x02, 0x00, 0x00, 0x3c, 0x00,
   0x00, 0x80, 0x04, 0x0b, 0x00, 0x80, 0x90, 0x00, 0x00, 0x00, 0x21, 0x8c,
   0x00, 0x20, 0x21, 0x00, 0x00, 0x00, 0x92, 0x31, 0x00, 0x00, 0x03, 0x00,
   0x00, 0x00, 0x98, 0x94, 0x00, 0x08, 0x18, 0x00, 0x00, 0x00, 0x42, 0x90,
   0x80, 0x70, 0x20, 0x00, 0x00, 0x00, 0x20, 0x92, 0x00, 0x40, 0x28, 0x00,
   0x00, 0x00, 0x50, 0x90, 0x04, 0x88, 0x01, 0x00, 0x00, 0x00, 0x00, 0x18,
   0x40, 0x09, 0x04, 0x00, 0x00, 0x00, 0x80, 0x40, 0x08, 0x11, 0x05, 0x00,
   0x00, 0x00, 0x00, 0x44, 0x00, 0x51, 0x00, 0x00, 0x00, 0x00, 0x40, 0x04,
   0x00, 0x82, 0x00, 0x00, 0x00, 0x00, 0x00, 0x00, 0x20, 0x24, 0x00, 0x00,
   0x00, 0x00, 0x00, 0x00, 0x00, 0x0a, 0x00, 0x00, 0x00, 0x00, 0x00, 0x00,
   0x04, 0x0a, 0x00, 0x00, 0x00, 0x00, 0x00, 0x44, 0xa4, 0x00, 0x00, 0x00,
   0x00, 0x00, 0x00, 0x40, 0x60, 0x00, 0x00, 0x00, 0x00, 0x00, 0x00, 0x00,
   0x04, 0x00, 0x00, 0x00, 0x00, 0x00, 0x00, 0x00, 0x00, 0x00, 0x00, 0x00,
   0x00, 0x00, 0x00, 0x00, 0x00, 0x00, 0x00, 0x00, 0x00, 0x00, 0x00, 0x00,
   0x00, 0x00, 0x00, 0x00, 0x00, 0x00, 0x00, 0x00, 0x00, 0x00, 0x00, 0x00,
   0x00, 0x00, 0x00, 0x00, 0x00, 0x00, 0x00, 0x00 };
